<svg id="Icon_Setting_User" xmlns="http://www.w3.org/2000/svg" xmlns:xlink="http://www.w3.org/1999/xlink" width="24" height="24" viewBox="0 0 24 24">
  <defs>
    <clipPath id="clip-path">
      <rect id="長方形_317" data-name="長方形 317" width="23.2" height="23.2" fill="none"/>
    </clipPath>
  </defs>
  <rect id="Area" width="4" height="4" fill="none"/>
  <g id="Icon" transform="translate(0.8 0.8)" clip-path="url(#clip-path)">
    <path id="パス_93" data-name="パス 93" d="M22.9,11.7A11.2,11.2,0,1,1,11.7.5,11.2,11.2,0,0,1,22.9,11.7M4.2,19.492A4.152,4.152,0,0,1,6.518,18.22C9.4,17.7,9.4,16.781,9.4,16.206v-.922a5.789,5.789,0,0,1-1.732-4.261v-1.9a4.1,4.1,0,0,1,0-.486,3.849,3.849,0,0,1,4.028-3.661H11.7a3.9,3.9,0,0,1,.493.006,3.848,3.848,0,0,1,3.538,4.136v1.9A5.8,5.8,0,0,1,14,15.281V16.2c0,.575,0,1.468,2.878,2.015a4.227,4.227,0,0,1,2.466,1.452" transform="translate(-0.1 -0.1)" fill="none" stroke="#5b758c" stroke-width="1"/>
  </g>
</svg>
