<svg id="Icon_Logo_Elic" xmlns="http://www.w3.org/2000/svg" width="86" height="28" viewBox="0 0 86 28">
  <path id="パス_57" data-name="パス 57" d="M15.055,16.012H4.912v7.482H16.253v4.064H0V.442H15.653V4.506H4.912v7.483H15.055ZM26.155.442h4.912V23.414H42.128v4.144H26.155ZM56.344,27.558H51.432V.442h4.912ZM15.055,16.012H4.912v7.482H16.253v4.064H0V.442H15.653V4.506H4.912v7.483H15.055ZM26.155.442h4.912V23.414H42.128v4.144H26.155ZM56.344,27.558H51.432V.442h4.912ZM79.651,23.9c-5.448,0-9.39-3.432-9.423-9.9.033-6.464,3.975-9.9,9.423-9.9a13,13,0,0,1,5.271,1.046L86,1.207A15.368,15.368,0,0,0,79.451,0C71.325,0,65.229,5.263,65.082,14c.147,8.737,6.243,14,14.369,14A15.368,15.368,0,0,0,86,26.793l-1.078-3.942A13,13,0,0,1,79.651,23.9" fill="#fff"/>
</svg>
