<svg id="Icon_Calendar" xmlns="http://www.w3.org/2000/svg" xmlns:xlink="http://www.w3.org/1999/xlink" width="18" height="18" viewBox="0 0 18 18">
  <defs>
    <clipPath id="clip-path">
      <rect id="長方形_54" data-name="長方形 54" width="18" height="18" fill="none" stroke="#5b758c" stroke-width="1"/>
    </clipPath>
  </defs>
  <g id="Icon_Calendar-2" data-name="Icon_Calendar" clip-path="url(#clip-path)">
    <path id="パス_52" data-name="パス 52" d="M16.5,17.5H1.5a1,1,0,0,1-1-1V3.5a1,1,0,0,1,1-1h15a1,1,0,0,1,1,1v13A1,1,0,0,1,16.5,17.5ZM15,9H3v6H15ZM.5,6.5h17M3,12H15M11,9v6M7,9v6M5,4.5V0m8,4.5V0" transform="translate(-0.293)" fill="none" stroke="#5b758c" stroke-miterlimit="10" stroke-width="1"/>
  </g>
</svg>
