<svg id="Icon_Password_Hide" xmlns="http://www.w3.org/2000/svg" xmlns:xlink="http://www.w3.org/1999/xlink" width="19" height="19" viewBox="0 0 19 19">
  <defs>
    <clipPath id="clip-path">
      <rect id="長方形_53" data-name="長方形 53" width="19" height="19" fill="none" stroke="#5b758c" stroke-width="1"/>
    </clipPath>
  </defs>
  <g id="Icon_Password_Show" clip-path="url(#clip-path)">
    <path id="パス_51" data-name="パス 51" d="M7.67,14.69a7.941,7.941,0,0,0,1.83.21c5.16,0,8.85-5.25,8.85-5.25A15.522,15.522,0,0,0,15.5,6.74M13.55,5.45A8.737,8.737,0,0,0,9.5,4.4C4.34,4.4.65,9.65.65,9.65a15.279,15.279,0,0,0,4.62,4.08M9.5,13.1a3.6,3.6,0,0,0,3.6-3.6M12.05,6.95a3.606,3.606,0,0,0-5.1,5.1" fill="none" stroke="#5b758c" stroke-width="1"/>
    <line id="線_19" data-name="線 19" x1="18" y2="18" transform="translate(0.5 0.5)" fill="none" stroke="#5b758c" stroke-width="1"/>
  </g>
</svg>
