<svg id="Icon_User" xmlns="http://www.w3.org/2000/svg" xmlns:xlink="http://www.w3.org/1999/xlink" width="22" height="22" viewBox="0 0 22 22">
  <defs>
    <clipPath id="clip-path">
      <rect id="長方形_304" data-name="長方形 304" width="22" height="22" fill="none" stroke="#5b758c" stroke-width="1"/>
    </clipPath>
  </defs>
  <rect id="Area" width="22" height="22" fill="none"/>
  <g id="Icon" clip-path="url(#clip-path)">
    <path id="パス_68" data-name="パス 68" d="M21.452,10.976A10.476,10.476,0,1,1,10.976.5,10.476,10.476,0,0,1,21.452,10.976M3.959,18.264a3.884,3.884,0,0,1,2.169-1.19C8.82,16.589,8.82,15.728,8.82,15.19v-.862A5.414,5.414,0,0,1,7.2,10.343V8.564A3.642,3.642,0,0,1,7.2,8.11a3.6,3.6,0,0,1,3.776-3.424,3.758,3.758,0,0,1,.461.006,3.6,3.6,0,0,1,3.309,3.876v1.775a5.419,5.419,0,0,1-1.615,3.982v.862c0,.538,0,1.373,2.692,1.885v0A3.952,3.952,0,0,1,18.13,18.43" transform="translate(0.024 0.024)" fill="none" stroke="#5b758c" stroke-width="1"/>
  </g>
</svg>
