<svg id="Icon_Settings" xmlns="http://www.w3.org/2000/svg" xmlns:xlink="http://www.w3.org/1999/xlink" width="22" height="22" viewBox="0 0 22 22">
  <defs>
    <clipPath id="clip-path">
      <rect id="長方形_45" data-name="長方形 45" width="22" height="22" fill="none" stroke="#22C5E6" stroke-width="1"/>
    </clipPath>
  </defs>
  <rect id="Area" width="22" height="22" rx="10" fill="none"/>
  <g id="Icon" clip-path="url(#clip-path)">
    <circle id="楕円形_14" data-name="楕円形 14" cx="4.125" cy="4.125" r="4.125" transform="translate(6.875 6.875)" fill="none" stroke="#22C5E6" stroke-linecap="round" stroke-linejoin="round" stroke-width="1"/>
    <path id="パス_47" data-name="パス 47" d="M21.281,9.594H19.03a7.861,7.861,0,0,0-1.046-2.522l1.593-1.593a.344.344,0,0,0,0-.486L17.633,3.048a.344.344,0,0,0-.486,0L15.554,4.641A7.864,7.864,0,0,0,13.031,3.6V1.344A.344.344,0,0,0,12.688,1H9.938a.344.344,0,0,0-.344.344V3.6A7.875,7.875,0,0,0,7.072,4.641L5.478,3.048a.344.344,0,0,0-.486,0L3.048,4.992a.344.344,0,0,0,0,.486L4.641,7.071A7.864,7.864,0,0,0,3.6,9.594H1.344A.344.344,0,0,0,1,9.938v2.75a.344.344,0,0,0,.344.344H3.6a7.875,7.875,0,0,0,1.045,2.522L3.048,17.147a.344.344,0,0,0,0,.486l1.944,1.944a.344.344,0,0,0,.486,0l1.593-1.593A7.865,7.865,0,0,0,9.594,19.03v2.252a.344.344,0,0,0,.344.344h2.75a.344.344,0,0,0,.344-.344V19.03a7.861,7.861,0,0,0,2.522-1.046l1.593,1.593a.344.344,0,0,0,.486,0l1.945-1.944a.344.344,0,0,0,0-.486l-1.593-1.593a7.881,7.881,0,0,0,1.046-2.522h2.252a.344.344,0,0,0,.344-.344V9.938A.344.344,0,0,0,21.281,9.594Z" transform="translate(-0.313 -0.313)" fill="none" stroke="#22C5E6" stroke-linecap="round" stroke-linejoin="round" stroke-width="1"/>
  </g>
</svg>
