<svg width="18" height="18" viewBox="0 0 18 18" fill="none" xmlns="http://www.w3.org/2000/svg">
<g clip-path="url(#clip0_1759_2268)">
<mask id="mask0_1759_2268" style="mask-type:alpha" maskUnits="userSpaceOnUse" x="0" y="0" width="18" height="18">
<rect width="18" height="18" fill="black"/>
</mask>
<g mask="url(#mask0_1759_2268)">
<path d="M15 9H15.5V8.5H15V9ZM3 9V8.5H2.5V9H3ZM3 15H2.5V15.5H3V15ZM15 15V15.5H15.5V15H15ZM16.5 17H1.5V18H16.5V17ZM1.5 17C1.22414 17 1 16.7759 1 16.5H0C0 17.3281 0.671858 18 1.5 18V17ZM1 16.5V3.5H0V16.5H1ZM1 3.5C1 3.22414 1.22414 3 1.5 3V2C0.671858 2 0 2.67186 0 3.5H1ZM1.5 3H16.5V2H1.5V3ZM16.5 3C16.7759 3 17 3.22414 17 3.5H18C18 2.67186 17.3281 2 16.5 2V3ZM17 3.5V16.5H18V3.5H17ZM17 16.5C17 16.7759 16.7759 17 16.5 17V18C17.3281 18 18 17.3281 18 16.5H17ZM15 8.5H3V9.5H15V8.5ZM2.5 9V15H3.5V9H2.5ZM3 15.5H15V14.5H3V15.5ZM15.5 15V9H14.5V15H15.5ZM0.5 7H17.5V6H0.5V7ZM3 12.5H15V11.5H3V12.5ZM10.5 9V15H11.5V9H10.5ZM6.5 9V15H7.5V9H6.5ZM5.5 4.5V0H4.5V4.5H5.5ZM13.5 4.5V0H12.5V4.5H13.5Z" fill="#5B758C"/>
</g>
</g>
<defs>
<clipPath id="clip0_1759_2268">
<rect width="18" height="18" fill="white"/>
</clipPath>
</defs>
</svg>
