<svg width="24" height="24" viewBox="0 0 24 24" fill="none" xmlns="http://www.w3.org/2000/svg">
<g clip-path="url(#clip0_1444_23084)">
<path d="M21 6.5C22.1046 6.5 23 5.60457 23 4.5C23 3.39543 22.1046 2.5 21 2.5C19.8954 2.5 19 3.39543 19 4.5C19 5.60457 19.8954 6.5 21 6.5Z" stroke="#5B758C" stroke-linejoin="round"/>
<path d="M21 21.5C22.1046 21.5 23 20.6046 23 19.5C23 18.3954 22.1046 17.5 21 17.5C19.8954 17.5 19 18.3954 19 19.5C19 20.6046 19.8954 21.5 21 21.5Z" stroke="#5B758C" stroke-linejoin="round"/>
<path d="M3.5 14.5C4.88071 14.5 6 13.3807 6 12C6 10.6193 4.88071 9.5 3.5 9.5C2.11929 9.5 1 10.6193 1 12C1 13.3807 2.11929 14.5 3.5 14.5Z" stroke="#5B758C" stroke-linejoin="round"/>
<path d="M21 14C22.1046 14 23 13.1046 23 12C23 10.8954 22.1046 10 21 10C19.8954 10 19 10.8954 19 12C19 13.1046 19.8954 14 21 14Z" stroke="#5B758C" stroke-linejoin="round"/>
<path d="M19 12H6" stroke="#5B758C" stroke-linejoin="round"/>
<path d="M19 19.5H12V4.5H19" stroke="#5B758C" stroke-linejoin="round"/>
</g>
<defs>
<clipPath id="clip0_1444_23084">
<rect width="23" height="20" fill="white" transform="translate(0.5 2)"/>
</clipPath>
</defs>
</svg>
