<svg width="24" height="24" viewBox="0 0 24 24" fill="none" xmlns="http://www.w3.org/2000/svg">
<g clip-path="url(#clip0_1444_23002)">
<path d="M12 0.5C9.49 4.76 2 5.8 2 5.8V11.68C2.14 16.88 6.06 21.52 12 23.5C17.94 21.52 21.86 16.88 22 11.68V5.8C22 5.8 14.51 4.76 12 0.5Z" stroke="#5B758C" stroke-linejoin="round"/>
<path d="M7.5 21.24C7.64 20.39 8.3 19.73 9.15 19.59C10.65 19.32 10.95 18.84 10.95 18.54V18.06C10.41 17.57 9.9 16.77 9.9 15.84V14.4C9.9 12.84 11.01 12.24 12 12.24C12.99 12.24 14.1 12.84 14.1 14.4V15.84C14.1 16.75 13.59 17.57 13.05 18.06V18.54C13.05 18.84 13.2 19.3 14.7 19.59C15.56 19.76 16.26 20.39 16.5 21.24" stroke="#5B758C" stroke-linejoin="round"/>
<path d="M2.72021 15.27C2.98021 15.06 3.30021 14.91 3.65021 14.85C5.15021 14.58 5.45021 14.1 5.45021 13.8V13.32C4.91021 12.83 4.40021 12.03 4.40021 11.1V9.66C4.40021 8.1 5.51021 7.5 6.50021 7.5C7.49021 7.5 8.60021 8.1 8.60021 9.66V11.1C8.60021 12.01 8.09021 12.83 7.55021 13.32V13.8C7.55021 14.1 7.70021 14.56 9.20021 14.85C9.45021 14.9 9.69021 14.99 9.90021 15.11" stroke="#5B758C" stroke-linejoin="round"/>
<path d="M14.1001 15.03C14.2701 14.95 14.4601 14.89 14.6501 14.85C16.1501 14.58 16.4501 14.1 16.4501 13.8V13.32C15.9101 12.83 15.4001 12.03 15.4001 11.1V9.66C15.4001 8.1 16.5101 7.5 17.5001 7.5C18.4901 7.5 19.6001 8.1 19.6001 9.66V11.1C19.6001 12.01 19.0901 12.83 18.5501 13.32V13.8C18.5501 14.1 18.7001 14.56 20.2001 14.85C20.5901 14.93 20.9501 15.1 21.2501 15.35" stroke="#5B758C" stroke-linejoin="round"/>
</g>
<defs>
<clipPath id="clip0_1444_23002">
<rect width="21" height="24" fill="white" transform="translate(1.5)"/>
</clipPath>
</defs>
</svg>
