<svg width="20" height="20" viewBox="0 0 20 20" fill="none" xmlns="http://www.w3.org/2000/svg">
<mask id="mask0_0_29965" style="mask-type:alpha" maskUnits="userSpaceOnUse" x="0" y="0" width="20" height="20">
<rect width="20" height="20" fill="black"/>
</mask>
<g mask="url(#mask0_0_29965)">
<circle cx="10" cy="10" r="3.75" stroke="#5B758C" stroke-linecap="round" stroke-linejoin="round"/>
<path d="M19.0625 8.43751H17.0156C16.835 7.62376 16.5131 6.84813 16.065 6.14501L17.5131 4.69688C17.635 4.57501 17.635 4.37688 17.5131 4.25501L15.7456 2.48688C15.6231 2.365 15.4256 2.365 15.3038 2.48688L13.8556 3.935C13.1525 3.48688 12.3763 3.16563 11.5625 2.985V0.9375C11.5625 0.765 11.4225 0.625 11.25 0.625H8.75C8.5775 0.625 8.4375 0.765 8.4375 0.9375V2.985C7.62375 3.16563 6.84812 3.4875 6.145 3.935L4.69625 2.48688C4.57438 2.365 4.37687 2.365 4.25438 2.48688L2.48688 4.25438C2.365 4.37688 2.365 4.57438 2.48688 4.69625L3.935 6.14438C3.48688 6.84751 3.16563 7.62375 2.985 8.4375H0.9375C0.765 8.4375 0.625 8.5775 0.625 8.75V11.25C0.625 11.4225 0.765 11.5625 0.9375 11.5625H2.985C3.16563 12.3763 3.4875 13.1519 3.935 13.855L2.48688 15.3038C2.365 15.4256 2.365 15.6231 2.48688 15.7456L4.25438 17.5131C4.37688 17.635 4.57438 17.635 4.69625 17.5131L6.14438 16.065C6.84751 16.5131 7.62375 16.835 8.4375 17.0156V19.0625C8.4375 19.235 8.5775 19.375 8.75 19.375H11.25C11.4225 19.375 11.5625 19.235 11.5625 19.0625V17.0156C12.3763 16.835 13.1519 16.5131 13.855 16.065L15.3031 17.5131C15.425 17.635 15.6231 17.635 15.745 17.5131L17.5131 15.7456C17.635 15.6231 17.635 15.4256 17.5131 15.3038L16.065 13.8556C16.5131 13.1525 16.8344 12.3763 17.0156 11.5625H19.0625C19.235 11.5625 19.375 11.4225 19.375 11.25V8.75C19.375 8.5775 19.235 8.4375 19.0625 8.4375V8.43751Z" stroke="#5B758C" stroke-linecap="round" stroke-linejoin="round"/>
</g>
</svg>
