<svg width="22" height="22" viewBox="0 0 22 22" fill="none" xmlns="http://www.w3.org/2000/svg">
<g clip-path="url(#clip0_0_30030)">
<mask id="mask0_0_30030" style="mask-type:alpha" maskUnits="userSpaceOnUse" x="3" y="-1" width="16" height="23">
<rect x="3" y="-0.00012207" width="16" height="22" fill="black"/>
</mask>
<g mask="url(#mask0_0_30030)">
<path d="M18.5 5.57755H19V5.3091L18.7762 5.16079L18.5 5.57755ZM11 0.606384L11.2762 0.189621L11 0.00652307L10.7238 0.189621L11 0.606384ZM3.5 5.57755L3.22376 5.16079L3 5.3091V5.57755H3.5ZM3.5 12.8565H3V13.1249L3.2237 13.2732L3.5 12.8565ZM8.77 16.3506L9.21835 16.1293L9.15867 16.0084L9.0463 15.9339L8.77 16.3506ZM11 20.8679L10.5517 21.0893L11.0001 21.9977L11.4484 21.0892L11 20.8679ZM13.229 16.3506L12.9527 15.9339L12.8403 16.0084L12.7806 16.1294L13.229 16.3506ZM18.5 12.8565L18.7763 13.2733L19 13.1249V12.8565H18.5ZM13.875 9.01797C13.875 10.6364 12.5818 11.9371 11 11.9371V12.9371C13.1462 12.9371 14.875 11.1764 14.875 9.01797H13.875ZM11 11.9371C9.41825 11.9371 8.125 10.6364 8.125 9.01797H7.125C7.125 11.1764 8.85375 12.9371 11 12.9371V11.9371ZM8.125 9.01797C8.125 7.39959 9.41825 6.09883 11 6.09883V5.09883C8.85375 5.09883 7.125 6.8596 7.125 9.01797H8.125ZM11 6.09883C12.5818 6.09883 13.875 7.39959 13.875 9.01797H14.875C14.875 6.8596 13.1462 5.09883 11 5.09883V6.09883ZM18.7762 5.16079L11.2762 0.189621L10.7238 1.02315L18.2238 5.99432L18.7762 5.16079ZM10.7238 0.189621L3.22376 5.16079L3.77624 5.99432L11.2762 1.02315L10.7238 0.189621ZM3 5.57755V12.8565H4V5.57755H3ZM3.2237 13.2732L8.4937 16.7673L9.0463 15.9339L3.7763 12.4398L3.2237 13.2732ZM8.32165 16.572L10.5517 21.0893L11.4483 20.6466L9.21835 16.1293L8.32165 16.572ZM11.4484 21.0892L13.6774 16.5719L12.7806 16.1294L10.5516 20.6467L11.4484 21.0892ZM13.5053 16.7674L18.7763 13.2733L18.2237 12.4398L12.9527 15.9339L13.5053 16.7674ZM19 12.8565V5.57755H18V12.8565H19Z" fill="#5B758C"/>
</g>
</g>
<defs>
<clipPath id="clip0_0_30030">
<rect width="16" height="22" fill="white" transform="translate(3 -0.00012207)"/>
</clipPath>
</defs>
</svg>
