<svg width="24" height="25" viewBox="0 0 24 25" fill="none" xmlns="http://www.w3.org/2000/svg">
<mask id="mask0_0_29626" style="mask-type:alpha" maskUnits="userSpaceOnUse" x="1" y="1" width="22" height="23">
<rect x="1" y="1" width="22" height="22.0015" fill="black"/>
</mask>
<g mask="url(#mask0_0_29626)">
<path d="M22.6022 5.18262L20.1336 6.74234C19.9644 6.85006 19.7452 6.83565 19.5912 6.70668L18.5731 5.85702C18.5018 5.79785 18.4502 5.71819 18.4252 5.62868L18.102 4.49606C18.0429 4.29199 18.1316 4.07351 18.3167 3.96882L21.1365 2.35296C19.3795 0.876681 16.7585 1.10427 15.2822 2.86199C14.5395 3.74578 14.1982 4.89889 14.34 6.04516C14.4015 6.48061 14.2573 6.92061 13.9501 7.23544L7.23631 13.953C6.92376 14.2595 6.48679 14.4037 6.05362 14.343C5.88217 14.321 5.70845 14.3096 5.53472 14.3096C3.25582 14.2937 1.39493 16.128 1.379 18.4077C1.37748 18.6368 1.39493 18.8659 1.43134 19.0919L4.2352 17.3221C4.40437 17.2143 4.62361 17.2288 4.77761 17.357L5.79492 18.2066C5.86623 18.2665 5.91782 18.3454 5.94361 18.435L6.26678 19.5676C6.32595 19.7724 6.23719 19.9901 6.05209 20.0956L3.06464 21.8025C3.85133 22.3889 4.82161 22.6764 5.80174 22.6135C8.09126 22.467 9.8285 20.4931 9.68284 18.2028C9.67677 18.1072 9.66691 18.0117 9.65401 17.9168C9.59029 17.4852 9.73139 17.0482 10.0364 16.7357L16.7274 10.0446C17.0399 9.73662 17.4784 9.59248 17.9131 9.65545C20.1875 9.96042 22.2782 8.36352 22.5832 6.08917C22.6082 5.90634 22.6204 5.72124 22.6204 5.53689C22.6204 5.41627 22.612 5.29944 22.6021 5.18261L22.6022 5.18262Z" stroke="#5B758C" stroke-linecap="round" stroke-linejoin="round"/>
</g>
</svg>
