<svg width="20" height="20" viewBox="0 0 20 20" fill="none" xmlns="http://www.w3.org/2000/svg">
<path d="M9.98977 12.5C10.2698 12.5 10.5098 12.41 10.7098 12.22C10.9098 12.03 11.0098 11.8 11.0098 11.52C11.0098 11.24 10.9198 11 10.7298 10.8C10.5398 10.6 10.3098 10.5 10.0298 10.5C9.74977 10.5 9.50977 10.59 9.30977 10.78C9.10977 10.97 9.00977 11.2 9.00977 11.48C9.00977 11.76 9.09977 12 9.28977 12.2C9.47977 12.4 9.70977 12.5 9.98977 12.5Z" fill="#2E455C"/>
<path d="M10 19C14.1421 19 17.5 15.6421 17.5 11.5C17.5 7.35786 14.1421 4 10 4C5.85786 4 2.5 7.35786 2.5 11.5C2.5 15.6421 5.85786 19 10 19Z" stroke="#2E455C" stroke-linecap="round" stroke-linejoin="round"/>
<path d="M7 1H13" stroke="#2E455C" stroke-linejoin="round"/>
<path d="M10 1V4" stroke="#2E455C" stroke-linejoin="round"/>
<path d="M10 6.73001V10.73" stroke="#2E455C" stroke-linejoin="round"/>
<path d="M17.4198 4.07999L15.2598 6.23999" stroke="#2E455C" stroke-linejoin="round"/>
</svg>
