<svg width="24" height="24" viewBox="0 0 24 24" fill="none" xmlns="http://www.w3.org/2000/svg">
<path d="M4.53075 19.5L2.05154 21C1.07021 19.234 0.5 17.188 0.5 15C0.5 8.373 5.64913 3 12 3C18.3518 3 23.5 8.373 23.5 15C23.5 17.188 22.9298 19.234 21.9494 21L19.4692 19.5" stroke="#5B758C"/>
<path d="M12 3.0004V6.0004" stroke="#5B758C"/>
<path d="M6.2334 4.60818L7.7334 7.20619" stroke="#5B758C"/>
<path d="M2.10742 9.0004L4.70542 10.5004" stroke="#5B758C"/>
<path d="M0.5 15.0005H3.5" stroke="#5B758C"/>
<path d="M23.5 15.0005H20.5" stroke="#5B758C"/>
<path d="M21.8924 9.0004L19.2944 10.5004" stroke="#5B758C"/>
<path d="M17.7666 4.60818L16.2666 7.20619" stroke="#5B758C"/>
<circle cx="12" cy="15.0009" r="1.5" stroke="#5B758C"/>
<path d="M11.0685 13.9399L7.83154 10.7029" stroke="#5B758C"/>
</svg>
