<svg width="19" height="12" viewBox="0 0 19 12" fill="none" xmlns="http://www.w3.org/2000/svg">
<g clip-path="url(#clip0_0_29682)">
<mask id="mask0_0_29682" style="mask-type:alpha" maskUnits="userSpaceOnUse" x="0" y="0" width="19" height="12">
<rect width="19" height="12" fill="black"/>
</mask>
<g mask="url(#mask0_0_29682)">
<path d="M0.5 5.99937L0.0873654 5.71701L-0.105863 5.99937L0.0873654 6.28174L0.5 5.99937ZM18.5 5.99937L18.9126 6.28174L19.1059 5.99937L18.9126 5.71701L18.5 5.99937ZM9.5 0.0150146C6.70303 0.0150146 4.33969 1.47328 2.70634 2.87812C1.88442 3.58504 1.23275 4.29083 0.786247 4.82001C0.562711 5.08493 0.389838 5.3065 0.272018 5.46304C0.213089 5.54134 0.167877 5.60344 0.136931 5.64665C0.121456 5.66826 0.109543 5.68515 0.10126 5.69698C0.0971189 5.7029 0.0938846 5.70756 0.0915661 5.71091C0.0904068 5.71258 0.0894764 5.71393 0.088776 5.71495C0.0884258 5.71546 0.088133 5.71589 0.0878979 5.71623C0.0877804 5.7164 0.0876471 5.71659 0.0875884 5.71668C0.0874697 5.71685 0.0873654 5.71701 0.5 5.99937C0.912635 6.28174 0.912559 6.28186 0.912497 6.28194C0.912496 6.28195 0.912449 6.28202 0.912445 6.28202C0.912439 6.28203 0.912489 6.28196 0.912596 6.2818C0.91281 6.28149 0.91325 6.28085 0.913914 6.27989C0.915244 6.27797 0.917472 6.27476 0.920592 6.2703C0.926832 6.26138 0.936633 6.24748 0.949927 6.22892C0.976518 6.19179 1.01706 6.13606 1.071 6.06439C1.17892 5.92101 1.34024 5.71411 1.55053 5.46488C1.97169 4.96574 2.5862 4.30044 3.35841 3.63627C4.91331 2.29893 7.04997 1.01501 9.5 1.01501V0.0150146ZM0.5 5.99937C0.0873654 6.28174 0.0874697 6.2819 0.0875884 6.28207C0.0876471 6.28216 0.0877804 6.28235 0.0878979 6.28252C0.088133 6.28286 0.0884258 6.28329 0.088776 6.2838C0.0894764 6.28482 0.0904068 6.28617 0.0915661 6.28784C0.0938846 6.29119 0.0971189 6.29585 0.10126 6.30177C0.109543 6.3136 0.121456 6.33049 0.136931 6.3521C0.167877 6.39531 0.213089 6.45741 0.272018 6.53571C0.389838 6.69225 0.562711 6.91382 0.786247 7.17874C1.23275 7.70792 1.88442 8.41371 2.70634 9.12063C4.33969 10.5255 6.70303 11.9837 9.5 11.9837V10.9837C7.04997 10.9837 4.91331 9.69982 3.35841 8.36248C2.5862 7.69831 1.97169 7.03301 1.55053 6.53387C1.34024 6.28464 1.17892 6.07774 1.071 5.93435C1.01706 5.86269 0.976518 5.80696 0.949927 5.76983C0.936633 5.75127 0.926832 5.73737 0.920592 5.72845C0.917472 5.72399 0.915244 5.72078 0.913914 5.71886C0.91325 5.7179 0.91281 5.71726 0.912596 5.71695C0.912489 5.71679 0.912439 5.71672 0.912445 5.71673C0.912449 5.71673 0.912496 5.7168 0.912497 5.7168C0.912559 5.71689 0.912635 5.71701 0.5 5.99937ZM9.5 11.9837C12.297 11.9837 14.6603 10.5255 16.2937 9.12063C17.1156 8.41371 17.7673 7.70792 18.2138 7.17874C18.4373 6.91382 18.6102 6.69225 18.728 6.53571C18.7869 6.45741 18.8321 6.39531 18.8631 6.3521C18.8785 6.33049 18.8905 6.3136 18.8987 6.30177C18.9029 6.29585 18.9061 6.29119 18.9084 6.28784C18.9096 6.28617 18.9105 6.28482 18.9112 6.2838C18.9116 6.28329 18.9119 6.28286 18.9121 6.28252C18.9122 6.28235 18.9124 6.28216 18.9124 6.28207C18.9125 6.2819 18.9126 6.28174 18.5 5.99937C18.0874 5.71701 18.0874 5.71689 18.0875 5.7168C18.0875 5.7168 18.0876 5.71673 18.0876 5.71673C18.0876 5.71672 18.0875 5.71679 18.0874 5.71695C18.0872 5.71726 18.0868 5.7179 18.0861 5.71886C18.0848 5.72078 18.0825 5.72399 18.0794 5.72845C18.0732 5.73737 18.0634 5.75127 18.0501 5.76983C18.0235 5.80696 17.9829 5.86269 17.929 5.93435C17.8211 6.07774 17.6598 6.28464 17.4495 6.53387C17.0283 7.03301 16.4138 7.69831 15.6416 8.36248C14.0867 9.69982 11.95 10.9837 9.5 10.9837V11.9837ZM18.5 5.99937C18.9126 5.71701 18.9125 5.71685 18.9124 5.71668C18.9124 5.71659 18.9122 5.7164 18.9121 5.71623C18.9119 5.71589 18.9116 5.71546 18.9112 5.71495C18.9105 5.71393 18.9096 5.71258 18.9084 5.71091C18.9061 5.70756 18.9029 5.7029 18.8987 5.69698C18.8905 5.68515 18.8785 5.66826 18.8631 5.64665C18.8321 5.60344 18.7869 5.54134 18.728 5.46304C18.6102 5.3065 18.4373 5.08493 18.2138 4.82001C17.7673 4.29083 17.1156 3.58504 16.2937 2.87812C14.6603 1.47328 12.297 0.0150146 9.5 0.0150146V1.01501C11.95 1.01501 14.0867 2.29893 15.6416 3.63627C16.4138 4.30044 17.0283 4.96574 17.4495 5.46488C17.6598 5.71411 17.8211 5.92101 17.929 6.06439C17.9829 6.13606 18.0235 6.19179 18.0501 6.22892C18.0634 6.24748 18.0732 6.26138 18.0794 6.2703C18.0825 6.27476 18.0848 6.27797 18.0861 6.27989C18.0868 6.28085 18.0872 6.28149 18.0874 6.2818C18.0875 6.28196 18.0876 6.28203 18.0876 6.28202C18.0876 6.28202 18.0875 6.28195 18.0875 6.28194C18.0874 6.28186 18.0874 6.28174 18.5 5.99937ZM9.5 2.58153C11.2332 2.58153 12.661 4.02893 12.661 5.84262H13.661C13.661 3.50229 11.8108 1.58153 9.5 1.58153V2.58153ZM12.661 5.84262C12.661 7.65631 11.2332 9.10371 9.5 9.10371V10.1037C11.8108 10.1037 13.661 8.18294 13.661 5.84262H12.661ZM9.5 9.10371C7.76679 9.10371 6.339 7.65631 6.339 5.84262H5.339C5.339 8.18295 7.18921 10.1037 9.5 10.1037V9.10371ZM6.339 5.84262C6.339 4.02894 7.76679 2.58153 9.5 2.58153V1.58153C7.18921 1.58153 5.339 3.50231 5.339 5.84262H6.339Z" fill="#5B758C"/>
</g>
</g>
<defs>
<clipPath id="clip0_0_29682">
<rect width="19" height="12" fill="white"/>
</clipPath>
</defs>
</svg>
