<svg width="20" height="20" viewBox="0 0 20 20" fill="none" xmlns="http://www.w3.org/2000/svg">
<mask id="mask0_0_29979" style="mask-type:alpha" maskUnits="userSpaceOnUse" x="0" y="0" width="20" height="20">
<rect width="20" height="20" fill="black"/>
</mask>
<g mask="url(#mask0_0_29979)">
<path d="M4.59091 15.9091V6.81818H3.59091V15.9091H4.59091ZM4.59091 6.81818C4.59091 5.08614 5.99523 3.68182 7.72727 3.68182V2.68182C5.44295 2.68182 3.59091 4.53386 3.59091 6.81818H4.59091ZM7.72727 3.68182H12.2727V2.68182H7.72727V3.68182ZM12.2727 3.68182C14.0048 3.68182 15.4091 5.08614 15.4091 6.81818H16.4091C16.4091 4.53386 14.557 2.68182 12.2727 2.68182V3.68182ZM15.4091 6.81818V15.9091H16.4091V6.81818H15.4091ZM9.5 0V3.18182H10.5V0H9.5ZM0 16.4091H20V15.4091H0V16.4091ZM5.86364 15.9091C5.86364 18.1934 7.71568 20.0455 10 20.0455V19.0455C8.26796 19.0455 6.86364 17.6411 6.86364 15.9091H5.86364ZM10 20.0455C12.2843 20.0455 14.1364 18.1934 14.1364 15.9091H13.1364C13.1364 17.6411 11.732 19.0455 10 19.0455V20.0455Z" fill="#5B758C"/>
</g>
</svg>
