<svg width="24" height="24" viewBox="0 0 24 24" fill="none" xmlns="http://www.w3.org/2000/svg">
<mask id="mask0_0_29597" style="mask-type:alpha" maskUnits="userSpaceOnUse" x="2" y="2" width="20" height="20">
<rect x="2" y="2" width="20" height="20" fill="black"/>
</mask>
<g mask="url(#mask0_0_29597)">
<path d="M11.5005 15.7028C11.5005 15.979 11.7243 16.2028 12.0005 16.2028C12.2766 16.2028 12.5005 15.979 12.5005 15.7028H11.5005ZM12.5005 2.435C12.5005 2.15886 12.2766 1.935 12.0005 1.935C11.7243 1.935 11.5005 2.15886 11.5005 2.435H12.5005ZM5.38615 9.22461C5.20416 9.43229 5.225 9.74819 5.43268 9.93018C5.64037 10.1122 5.95627 10.0913 6.13826 9.88365L5.38615 9.22461ZM12.0005 2.435L12.3664 2.09428C12.27 1.99077 12.1343 1.93292 11.9929 1.93505C11.8515 1.93719 11.7176 1.99911 11.6244 2.10548L12.0005 2.435ZM17.8728 9.47572C18.061 9.67782 18.3773 9.68911 18.5794 9.50094C18.7815 9.31276 18.7928 8.99638 18.6047 8.79428L17.8728 9.47572ZM12.5005 15.7028V2.435H11.5005V15.7028H12.5005ZM6.13826 9.88365L12.3765 2.76452L11.6244 2.10548L5.38615 9.22461L6.13826 9.88365ZM11.6345 2.77572L17.8728 9.47572L18.6047 8.79428L12.3664 2.09428L11.6345 2.77572Z" fill="#5B758C"/>
<path d="M2.43506 14.865V21.565H21.5655V14.865" stroke="#5B758C" stroke-linecap="round" stroke-linejoin="round"/>
</g>
</svg>
