<svg width="26" height="26" viewBox="0 0 26 26" fill="none" xmlns="http://www.w3.org/2000/svg">
<mask id="mask0_0_29832" style="mask-type:alpha" maskUnits="userSpaceOnUse" x="0" y="0" width="26" height="26">
<rect width="26" height="26" fill="black"/>
</mask>
<g mask="url(#mask0_0_29832)">
<path d="M7.4 18.6L6.92566 18.4419L6.60943 19.3906L7.55811 19.0743L7.4 18.6ZM10.2 10.2L10.0419 9.72566L9.80472 9.80472L9.72566 10.0419L10.2 10.2ZM18.6 7.4L19.0743 7.55811L19.3906 6.60943L18.4419 6.92566L18.6 7.4ZM15.8 15.8L15.9581 16.2743L16.1953 16.1953L16.2743 15.9581L15.8 15.8ZM7.87434 18.7581L10.6743 10.3581L9.72566 10.0419L6.92566 18.4419L7.87434 18.7581ZM10.3581 10.6743L18.7581 7.87434L18.4419 6.92566L10.0419 9.72566L10.3581 10.6743ZM18.1257 7.24189L15.3257 15.6419L16.2743 15.9581L19.0743 7.55811L18.1257 7.24189ZM15.6419 15.3257L7.24189 18.1257L7.55811 19.0743L15.9581 16.2743L15.6419 15.3257ZM9.84645 10.5536L15.4464 16.1536L16.1536 15.4464L10.5536 9.84645L9.84645 10.5536ZM13 1.5C19.3509 1.5 24.5 6.64914 24.5 13H25.5C25.5 6.09686 19.9031 0.5 13 0.5V1.5ZM24.5 13C24.5 19.3509 19.3509 24.5 13 24.5V25.5C19.9031 25.5 25.5 19.9031 25.5 13H24.5ZM13 24.5C6.64914 24.5 1.5 19.3509 1.5 13H0.5C0.5 19.9031 6.09686 25.5 13 25.5V24.5ZM1.5 13C1.5 6.64914 6.64914 1.5 13 1.5V0.5C6.09686 0.5 0.5 6.09686 0.5 13H1.5Z" fill="#5B758C"/>
</g>
</svg>
