<svg width="24" height="24" viewBox="0 0 24 24" fill="none" xmlns="http://www.w3.org/2000/svg">
<g clip-path="url(#clip0_1444_23086)">
<path d="M8.77998 18.105C8.35998 18.525 7.84998 18.735 7.24998 18.735C6.64998 18.735 6.13998 18.525 5.71998 18.105C5.29998 17.685 5.08998 17.175 5.08998 16.575C5.08998 15.975 5.29998 15.465 5.71998 15.045C6.13998 14.625 6.64998 14.415 7.24998 14.415C7.84998 14.415 8.35998 14.625 8.77998 15.045C9.19998 15.465 9.40998 15.975 9.40998 16.575C9.40998 17.175 9.19998 17.685 8.77998 18.105ZM12.02 21.345C13.09 20.275 13.71 18.965 13.86 17.405C14.01 15.855 13.7 14.445 12.92 13.195L16.44 9.67497L19.11 9.34497L19.76 5.47497L23.38 5.01497L23.49 0.654968H20.87L10.62 10.905C9.41998 10.145 8.03998 9.81497 6.48998 9.93497C4.93998 10.055 3.59998 10.675 2.46998 11.805C1.13998 13.135 0.47998 14.725 0.47998 16.575C0.47998 18.425 1.13998 20.015 2.46998 21.345C3.79998 22.675 5.38998 23.335 7.23998 23.335C9.08998 23.335 10.68 22.675 12.01 21.345H12.02Z" stroke="#5B758C" stroke-linejoin="round"/>
</g>
<defs>
<clipPath id="clip0_1444_23086">
<rect width="24" height="23.67" fill="white" transform="translate(0 0.164978)"/>
</clipPath>
</defs>
</svg>
