<svg width="22" height="22" viewBox="0 0 22 22" fill="none" xmlns="http://www.w3.org/2000/svg">
<mask id="mask0_0_29999" style="mask-type:alpha" maskUnits="userSpaceOnUse" x="0" y="0" width="22" height="22">
<rect width="22" height="22" fill="black"/>
</mask>
<g mask="url(#mask0_0_29999)">
<path d="M6.15174 17.0984L6.24015 17.5905L6.24039 17.5904L6.15174 17.0984ZM8.84412 14.3515H9.34412V14.1421L9.19486 13.9952L8.84412 14.3515ZM7.22869 10.3674L7.72869 10.379V10.3674H7.22869ZM7.22869 8.5875H7.72869V8.56843L7.72723 8.54943L7.22869 8.5875ZM7.2224 8.13388L6.72299 8.10941L6.72298 8.10961L7.2224 8.13388ZM10.998 4.71026L10.9735 5.20966L10.9977 5.21084L11.0218 5.20969L10.998 4.71026ZM11.459 4.71655L11.4984 4.2181L11.4966 4.21796L11.459 4.71655ZM14.7684 8.59274L14.27 8.55326L14.2684 8.57297V8.59274H14.7684ZM14.7684 10.3674H14.2683L14.2685 10.3786L14.7684 10.3674ZM13.153 14.3494L12.8021 13.9932L12.653 14.1401V14.3494H13.153ZM15.8453 17.0963L16.2921 16.8718L16.1812 16.6511L15.9386 16.605L15.8453 17.0963ZM15.8464 17.0984L15.3996 17.3229L15.5108 17.5441L15.7541 17.5898L15.8464 17.0984ZM20.9763 11.0002C20.9763 16.51 16.51 20.9764 11.0001 20.9764V21.9764C17.0623 21.9764 21.9763 17.0623 21.9763 11.0002H20.9763ZM11.0001 20.9764C5.49026 20.9764 1.02393 16.51 1.02393 11.0002H0.0239258C0.0239258 17.0623 4.93797 21.9764 11.0001 21.9764V20.9764ZM1.02393 11.0002C1.02393 5.49032 5.49026 1.02399 11.0001 1.02399V0.0239868C4.93797 0.0239868 0.0239258 4.93803 0.0239258 11.0002H1.02393ZM11.0001 1.02399C16.51 1.02399 20.9763 5.49032 20.9763 11.0002H21.9763C21.9763 4.93803 17.0623 0.0239868 11.0001 0.0239868V1.02399ZM4.35066 18.6275C4.85107 18.0851 5.51372 17.721 6.24015 17.5905L6.06333 16.6062C5.12195 16.7754 4.26346 17.2473 3.61567 17.9494L4.35066 18.6275ZM6.24039 17.5904C7.61544 17.3427 8.41666 16.9829 8.86458 16.5261C9.34998 16.0311 9.34412 15.4992 9.34412 15.2137H8.34412C8.34412 15.4666 8.33825 15.6346 8.15056 15.826C7.92538 16.0557 7.38041 16.369 6.06308 16.6063L6.24039 17.5904ZM9.34412 15.2137V14.3515H8.34412V15.2137H9.34412ZM9.19486 13.9952C8.22771 13.0432 7.69718 11.7348 7.72855 10.379L6.72882 10.3558C6.69105 11.9878 7.32966 13.5624 8.49338 14.7079L9.19486 13.9952ZM7.72869 10.3674V8.5875H6.72869V10.3674H7.72869ZM7.72723 8.54943C7.7173 8.41929 7.71549 8.28821 7.72181 8.15814L6.72298 8.10961C6.71464 8.28126 6.71703 8.45398 6.73014 8.62557L7.72723 8.54943ZM7.7218 8.15835C7.80572 6.44564 9.26111 5.12575 10.9735 5.20966L11.0225 4.21086C8.75816 4.0999 6.83393 5.84535 6.72299 8.10941L7.7218 8.15835ZM11.0218 5.20969C11.1555 5.20333 11.289 5.20515 11.4214 5.21513L11.4966 4.21796C11.323 4.20488 11.1486 4.20253 10.9742 4.21082L11.0218 5.20969ZM11.4195 5.21499C13.1288 5.35036 14.4053 6.84477 14.27 8.55326L15.2668 8.63221C15.4458 6.37233 13.7575 4.39702 11.4984 4.21811L11.4195 5.21499ZM14.2684 8.59274V10.3674H15.2684V8.59274H14.2684ZM14.2685 10.3786C14.2989 11.7336 13.7684 13.0412 12.8021 13.9932L13.5039 14.7056C14.6663 13.5603 15.3049 11.987 15.2683 10.3562L14.2685 10.3786ZM12.653 14.3494V15.2116H13.653V14.3494H12.653ZM12.653 15.2116C12.653 15.4986 12.6476 16.0244 13.1342 16.5159C13.5805 16.9668 14.3791 17.3268 15.7521 17.5875L15.9386 16.605C14.6192 16.3545 14.0716 16.0414 13.8448 15.8124C13.6584 15.624 13.653 15.4631 13.653 15.2116H12.653ZM15.3986 17.3208L15.3996 17.3229L16.2932 16.8739L16.2921 16.8718L15.3986 17.3208ZM15.7541 17.5898C16.5438 17.738 17.2567 18.1571 17.77 18.7738L18.5386 18.1341C17.8765 17.3386 16.9571 16.7981 15.9386 16.6069L15.7541 17.5898Z" fill="#5B758C"/>
</g>
</svg>
