<svg width="22" height="22" viewBox="0 0 22 22" fill="none" xmlns="http://www.w3.org/2000/svg">
<g clip-path="url(#clip0_0_30007)">
<path d="M0 21.483H22H0Z" stroke="#5B758C"/>
<g clip-path="url(#clip1_0_30007)">
<g clip-path="url(#clip2_0_30007)">
<mask id="mask0_0_30007" style="mask-type:alpha" maskUnits="userSpaceOnUse" x="0" y="0" width="22" height="22">
<rect width="22" height="22" fill="black"/>
</mask>
<g mask="url(#mask0_0_30007)">
<path d="M0 21.4828H22" stroke="#5B758C"/>
<path d="M17.5 22V3.5H4.5V22" stroke="#5B758C"/>
<path d="M14.5 22V16H7.5V22" stroke="#5B758C"/>
</g>
</g>
</g>
<path d="M11 0V3V0Z" stroke="#5B758C"/>
<g clip-path="url(#clip3_0_30007)">
<g clip-path="url(#clip4_0_30007)">
<mask id="mask1_0_30007" style="mask-type:alpha" maskUnits="userSpaceOnUse" x="0" y="0" width="22" height="22">
<rect width="22" height="22" fill="black"/>
</mask>
<g mask="url(#mask1_0_30007)">
<path d="M11 0V3" stroke="#5B758C"/>
</g>
</g>
</g>
<path d="M7 6.5H15H7Z" stroke="#5B758C"/>
<path d="M7 6.5H15" stroke="#5B758C"/>
<path d="M7 9.5H15H7Z" stroke="#5B758C"/>
<path d="M7 9.5H15" stroke="#5B758C"/>
<path d="M7 12.5H15H7Z" stroke="#5B758C"/>
<path d="M7 12.5H15" stroke="#5B758C"/>
</g>
<defs>
<clipPath id="clip0_0_30007">
<rect width="22" height="22" fill="white"/>
</clipPath>
<clipPath id="clip1_0_30007">
<rect width="22" height="22" fill="white"/>
</clipPath>
<clipPath id="clip2_0_30007">
<rect width="22" height="22" fill="white"/>
</clipPath>
<clipPath id="clip3_0_30007">
<rect width="22" height="22" fill="white"/>
</clipPath>
<clipPath id="clip4_0_30007">
<rect width="22" height="22" fill="white"/>
</clipPath>
</defs>
</svg>
