<svg width="24" height="24" viewBox="0 0 24 24" fill="none" xmlns="http://www.w3.org/2000/svg">
<g clip-path="url(#clip0_0_29605)">
<path d="M8.93701 6.72335C8.77981 6.49632 8.46833 6.43972 8.2413 6.59693C8.01427 6.75413 7.95767 7.06561 8.11488 7.29264L8.93701 6.72335ZM11.9999 12.025H12.4999C12.4999 11.9233 12.4689 11.824 12.411 11.7404L11.9999 12.025ZM11.4999 18.587C11.4999 18.8631 11.7238 19.087 11.9999 19.087C12.2761 19.087 12.4999 18.8631 12.4999 18.587H11.4999ZM15.885 7.29264C16.0422 7.06561 15.9856 6.75413 15.7586 6.59693C15.5316 6.43972 15.2201 6.49632 15.0629 6.72335L15.885 7.29264ZM11.5889 11.7404C11.4317 11.9674 11.4883 12.2789 11.7153 12.4361C11.9423 12.5933 12.2538 12.5367 12.411 12.3096L11.5889 11.7404ZM7.91895 13.313C7.6428 13.313 7.41895 13.5369 7.41895 13.813C7.41895 14.0891 7.6428 14.313 7.91895 14.313V13.313ZM16.0809 14.313C16.3571 14.313 16.5809 14.0891 16.5809 13.813C16.5809 13.5369 16.3571 13.313 16.0809 13.313V14.313ZM7.91895 15.886C7.6428 15.886 7.41895 16.1099 7.41895 16.386C7.41895 16.6621 7.6428 16.886 7.91895 16.886V15.886ZM16.0809 16.886C16.3571 16.886 16.5809 16.6621 16.5809 16.386C16.5809 16.1099 16.3571 15.886 16.0809 15.886V16.886ZM8.11488 7.29264L11.5889 12.3096L12.411 11.7404L8.93701 6.72335L8.11488 7.29264ZM11.4999 12.025V18.587H12.4999V12.025H11.4999ZM15.0629 6.72335L11.5889 11.7404L12.411 12.3096L15.885 7.29264L15.0629 6.72335ZM7.91895 14.313H16.0809V13.313H7.91895V14.313ZM7.91895 16.886H16.0809V15.886H7.91895V16.886Z" fill="#5B758C"/>
<g clip-path="url(#clip1_0_29605)">
<g clip-path="url(#clip2_0_29605)">
<mask id="mask0_0_29605" style="mask-type:alpha" maskUnits="userSpaceOnUse" x="0" y="0" width="24" height="24">
<rect width="24" height="24" fill="black"/>
</mask>
<g mask="url(#mask0_0_29605)">
<circle cx="12.0002" cy="12" r="11.4783" stroke="#5B758C" stroke-linecap="round" stroke-linejoin="round"/>
</g>
</g>
</g>
</g>
<defs>
<clipPath id="clip0_0_29605">
<rect width="24" height="24" fill="white"/>
</clipPath>
<clipPath id="clip1_0_29605">
<rect width="24" height="24" fill="white"/>
</clipPath>
<clipPath id="clip2_0_29605">
<rect width="24" height="24" fill="white"/>
</clipPath>
</defs>
</svg>
