<svg width="20" height="20" viewBox="0 0 20 20" fill="none" xmlns="http://www.w3.org/2000/svg">
<path d="M1 17.5L10 2.5L19 17.5H1Z" stroke="black" stroke-miterlimit="10"/>
<path d="M9.99025 15.74C10.2703 15.74 10.5103 15.65 10.7103 15.46C10.9103 15.27 11.0103 15.04 11.0103 14.76C11.0103 14.48 10.9203 14.24 10.7303 14.04C10.5403 13.84 10.3103 13.74 10.0303 13.74C9.75025 13.74 9.51025 13.83 9.31025 14.02C9.11025 14.21 9.01025 14.44 9.01025 14.72C9.01025 15 9.10025 15.24 9.29025 15.44C9.48025 15.64 9.71025 15.74 9.99025 15.74Z" fill="black"/>
<path d="M10 7.73999V11.74" stroke="black" stroke-miterlimit="10"/>
</svg>
