<svg width="19" height="19" viewBox="0 0 19 19" fill="none" xmlns="http://www.w3.org/2000/svg">
<g clip-path="url(#clip0_0_29672)">
<mask id="mask0_0_29672" style="mask-type:alpha" maskUnits="userSpaceOnUse" x="0" y="0" width="19" height="19">
<rect width="19" height="19" fill="black"/>
</mask>
<g mask="url(#mask0_0_29672)">
<path d="M9.4999 14.9V14.4L9.49909 14.4L9.4999 14.9ZM18.3499 9.64999L18.759 9.93751L18.9677 9.64051L18.7499 9.35005L18.3499 9.64999ZM9.4999 4.39999L9.50591 3.89999H9.4999V4.39999ZM0.649902 9.64999L0.240836 9.36248L0.0318837 9.65977L0.250134 9.9503L0.649902 9.64999ZM7.55552 15.1767C8.19362 15.3267 8.84628 15.4011 9.50071 15.4L9.49909 14.4C8.92152 14.4009 8.34619 14.3353 7.78429 14.2033L7.55552 15.1767ZM9.4999 15.4C12.2488 15.4 14.573 14.0047 16.1809 12.6584C16.9897 11.9811 17.631 11.3049 18.0706 10.7978C18.2906 10.5439 18.4608 10.3315 18.5768 10.1814C18.6349 10.1063 18.6794 10.0467 18.71 10.0052C18.7252 9.98449 18.737 9.96825 18.7452 9.95686C18.7493 9.95116 18.7525 9.94668 18.7548 9.94344C18.7559 9.94182 18.7568 9.94051 18.7575 9.93952C18.7579 9.93903 18.7582 9.93861 18.7584 9.93828C18.7585 9.93811 18.7587 9.93792 18.7587 9.93783C18.7589 9.93766 18.759 9.93751 18.3499 9.64999C17.9408 9.36248 17.9409 9.36237 17.941 9.36228C17.941 9.36227 17.941 9.3622 17.941 9.36219C17.941 9.36217 17.941 9.36224 17.9409 9.36238C17.9407 9.36266 17.9403 9.36326 17.9396 9.36416C17.9384 9.36597 17.9362 9.36901 17.9331 9.37325C17.9271 9.38172 17.9175 9.39497 17.9044 9.41267C17.8784 9.44809 17.8386 9.5013 17.7857 9.56977C17.6798 9.70677 17.5214 9.90454 17.3149 10.1428C16.9013 10.6201 16.2976 11.2564 15.5389 11.8916C14.0118 13.1703 11.911 14.4 9.4999 14.4V15.4ZM18.7499 9.35005C17.9056 8.22387 16.9167 7.21437 15.8082 6.34633L15.1916 7.13366C16.2311 7.94762 17.1582 8.89412 17.9499 9.94994L18.7499 9.35005ZM13.7877 5.01014C12.4713 4.29857 11.0018 3.918 9.50591 3.90003L9.4939 4.89996C10.828 4.91599 12.1385 5.25541 13.3121 5.88984L13.7877 5.01014ZM9.4999 3.89999C6.75097 3.89999 4.4268 5.29531 2.81891 6.64164C2.0101 7.31887 1.36876 7.99508 0.929245 8.50222C0.709208 8.75611 0.539007 8.96848 0.422957 9.1186C0.364913 9.19368 0.320361 9.25326 0.28984 9.29475C0.274577 9.3155 0.262818 9.33173 0.25463 9.34313C0.250535 9.34882 0.247333 9.35331 0.245032 9.35655C0.243881 9.35817 0.242955 9.35948 0.242256 9.36047C0.241906 9.36096 0.241612 9.36138 0.241376 9.36171C0.241258 9.36188 0.241123 9.36207 0.241064 9.36216C0.240943 9.36233 0.240836 9.36248 0.649902 9.64999C1.05897 9.93751 1.05889 9.93762 1.05883 9.93771C1.05882 9.93772 1.05877 9.93779 1.05877 9.9378C1.05875 9.93781 1.0588 9.93775 1.0589 9.93761C1.0591 9.93733 1.05952 9.93673 1.06016 9.93583C1.06145 9.93402 1.06362 9.93098 1.06666 9.92674C1.07275 9.91827 1.08234 9.90502 1.09537 9.88731C1.12142 9.8519 1.16118 9.79869 1.21411 9.73021C1.32002 9.59322 1.47841 9.39544 1.68493 9.15715C2.09854 8.6799 2.7022 8.04362 3.4609 7.40835C4.988 6.12968 7.08883 4.89999 9.4999 4.89999V3.89999ZM0.250134 9.9503C1.53795 11.6646 3.1614 13.0981 5.02131 14.1638L5.51849 13.2962C3.7764 12.2979 2.25585 10.9553 1.04967 9.34969L0.250134 9.9503ZM9.4999 13.6C11.764 13.6 13.5999 11.7641 13.5999 9.49999H12.5999C12.5999 11.2119 11.2118 12.6 9.4999 12.6V13.6ZM12.4035 6.59644C10.8002 4.99318 8.19961 4.99318 6.59635 6.59644L7.30346 7.30355C8.51619 6.09081 10.4836 6.09081 11.6963 7.30355L12.4035 6.59644ZM6.59635 6.59644C4.99309 8.1997 4.99309 10.8003 6.59635 12.4035L7.30346 11.6964C6.09072 10.4837 6.09072 8.51628 7.30346 7.30355L6.59635 6.59644Z" fill="#5B758C"/>
<path d="M18.5 0.5L0.5 18.5" stroke="#5B758C"/>
</g>
</g>
<defs>
<clipPath id="clip0_0_29672">
<rect width="19" height="19" fill="white"/>
</clipPath>
</defs>
</svg>
