<svg width="20" height="12" viewBox="0 0 20 12" fill="none" xmlns="http://www.w3.org/2000/svg">
<g clip-path="url(#clip0_2151_16192)">
<mask id="mask0_2151_16192" style="mask-type:alpha" maskUnits="userSpaceOnUse" x="0" y="0" width="20" height="12">
<rect x="0.5" width="19" height="12" fill="black"/>
</mask>
<g mask="url(#mask0_2151_16192)">
<path d="M1 5.99925L0.587365 5.71688L0.394137 5.99925L0.587365 6.28162L1 5.99925ZM19 5.99925L19.4126 6.28162L19.6059 5.99925L19.4126 5.71688L19 5.99925ZM10 0.0148926C7.20303 0.0148926 4.83969 1.47316 3.20634 2.878C2.38442 3.58492 1.73275 4.29071 1.28625 4.81988C1.06271 5.08481 0.889838 5.30638 0.772018 5.46292C0.713089 5.54122 0.667877 5.60332 0.636931 5.64653C0.621456 5.66813 0.609543 5.68502 0.60126 5.69686C0.597119 5.70278 0.593885 5.70743 0.591566 5.71079C0.590407 5.71246 0.589476 5.71381 0.588776 5.71483C0.588426 5.71534 0.588133 5.71576 0.587898 5.71611C0.58778 5.71628 0.587647 5.71647 0.587588 5.71656C0.58747 5.71673 0.587365 5.71688 1 5.99925C1.41263 6.28162 1.41256 6.28173 1.4125 6.28182C1.4125 6.28183 1.41245 6.28189 1.41245 6.2819C1.41244 6.28191 1.41249 6.28183 1.4126 6.28168C1.41281 6.28137 1.41325 6.28073 1.41391 6.27977C1.41524 6.27785 1.41747 6.27464 1.42059 6.27018C1.42683 6.26126 1.43663 6.24736 1.44993 6.2288C1.47652 6.19167 1.51706 6.13594 1.571 6.06427C1.67892 5.92089 1.84024 5.71399 2.05053 5.46476C2.47169 4.96562 3.0862 4.30032 3.85841 3.63615C5.41331 2.2988 7.54997 1.01489 10 1.01489V0.0148926ZM1 5.99925C0.587365 6.28162 0.58747 6.28177 0.587588 6.28195C0.587647 6.28203 0.58778 6.28223 0.587898 6.2824C0.588133 6.28274 0.588426 6.28317 0.588776 6.28368C0.589476 6.2847 0.590407 6.28604 0.591566 6.28772C0.593885 6.29107 0.597119 6.29573 0.60126 6.30165C0.609543 6.31348 0.621456 6.33037 0.636931 6.35198C0.667877 6.39519 0.713089 6.45729 0.772018 6.53558C0.889838 6.69213 1.06271 6.91369 1.28625 7.17862C1.73275 7.7078 2.38442 8.41359 3.20634 9.12051C4.83969 10.5253 7.20303 11.9836 10 11.9836V10.9836C7.54997 10.9836 5.41331 9.6997 3.85841 8.36236C3.0862 7.69819 2.47169 7.03289 2.05053 6.53375C1.84024 6.28451 1.67892 6.07762 1.571 5.93423C1.51706 5.86256 1.47652 5.80684 1.44993 5.76971C1.43663 5.75115 1.42683 5.73724 1.42059 5.72833C1.41747 5.72387 1.41524 5.72066 1.41391 5.71874C1.41325 5.71777 1.41281 5.71714 1.4126 5.71683C1.41249 5.71667 1.41244 5.7166 1.41245 5.71661C1.41245 5.71661 1.4125 5.71668 1.4125 5.71668C1.41256 5.71677 1.41263 5.71688 1 5.99925ZM10 11.9836C12.797 11.9836 15.1603 10.5253 16.7937 9.12051C17.6156 8.41359 18.2673 7.7078 18.7138 7.17862C18.9373 6.91369 19.1102 6.69213 19.228 6.53558C19.2869 6.45729 19.3321 6.39519 19.3631 6.35198C19.3785 6.33037 19.3905 6.31348 19.3987 6.30165C19.4029 6.29573 19.4061 6.29107 19.4084 6.28772C19.4096 6.28604 19.4105 6.2847 19.4112 6.28368C19.4116 6.28317 19.4119 6.28274 19.4121 6.2824C19.4122 6.28223 19.4124 6.28203 19.4124 6.28195C19.4125 6.28177 19.4126 6.28162 19 5.99925C18.5874 5.71688 18.5874 5.71677 18.5875 5.71668C18.5875 5.71668 18.5876 5.71661 18.5876 5.71661C18.5876 5.7166 18.5875 5.71667 18.5874 5.71683C18.5872 5.71714 18.5868 5.71777 18.5861 5.71874C18.5848 5.72066 18.5825 5.72387 18.5794 5.72833C18.5732 5.73724 18.5634 5.75115 18.5501 5.76971C18.5235 5.80684 18.4829 5.86256 18.429 5.93423C18.3211 6.07762 18.1598 6.28451 17.9495 6.53375C17.5283 7.03289 16.9138 7.69819 16.1416 8.36236C14.5867 9.6997 12.45 10.9836 10 10.9836V11.9836ZM19 5.99925C19.4126 5.71688 19.4125 5.71673 19.4124 5.71656C19.4124 5.71647 19.4122 5.71628 19.4121 5.71611C19.4119 5.71576 19.4116 5.71534 19.4112 5.71483C19.4105 5.71381 19.4096 5.71246 19.4084 5.71079C19.4061 5.70743 19.4029 5.70278 19.3987 5.69686C19.3905 5.68502 19.3785 5.66813 19.3631 5.64653C19.3321 5.60332 19.2869 5.54122 19.228 5.46292C19.1102 5.30638 18.9373 5.08481 18.7138 4.81988C18.2673 4.29071 17.6156 3.58492 16.7937 2.878C15.1603 1.47316 12.797 0.0148926 10 0.0148926V1.01489C12.45 1.01489 14.5867 2.2988 16.1416 3.63615C16.9138 4.30032 17.5283 4.96562 17.9495 5.46476C18.1598 5.71399 18.3211 5.92089 18.429 6.06427C18.4829 6.13594 18.5235 6.19167 18.5501 6.2288C18.5634 6.24736 18.5732 6.26126 18.5794 6.27018C18.5825 6.27464 18.5848 6.27785 18.5861 6.27977C18.5868 6.28073 18.5872 6.28137 18.5874 6.28168C18.5875 6.28183 18.5876 6.28191 18.5876 6.2819C18.5876 6.28189 18.5875 6.28183 18.5875 6.28182C18.5874 6.28173 18.5874 6.28162 19 5.99925ZM10 2.58141C11.7332 2.58141 13.161 4.02881 13.161 5.8425H14.161C14.161 3.50217 12.3108 1.58141 10 1.58141V2.58141ZM13.161 5.8425C13.161 7.65618 11.7332 9.10359 10 9.10359V10.1036C12.3108 10.1036 14.161 8.18282 14.161 5.8425H13.161ZM10 9.10359C8.26679 9.10359 6.839 7.65619 6.839 5.8425H5.839C5.839 8.18283 7.68921 10.1036 10 10.1036V9.10359ZM6.839 5.8425C6.839 4.02882 8.26679 2.58141 10 2.58141V1.58141C7.68921 1.58141 5.839 3.50218 5.839 5.8425H6.839Z" fill="#5B758C"/>
</g>
</g>
<defs>
<clipPath id="clip0_2151_16192">
<rect width="19" height="12" fill="white" transform="translate(0.5)"/>
</clipPath>
</defs>
</svg>
