<svg width="20" height="20" viewBox="0 0 20 20" fill="none" xmlns="http://www.w3.org/2000/svg">
<g clip-path="url(#clip0_2151_45105)">
<mask id="mask0_2151_45105" style="mask-type:alpha" maskUnits="userSpaceOnUse" x="0" y="0" width="20" height="20">
<rect x="0.5" y="0.5" width="19" height="19" fill="black"/>
</mask>
<g mask="url(#mask0_2151_45105)">
<path d="M9.9999 15.3999V14.8999L9.99909 14.8999L9.9999 15.3999ZM18.8499 10.1499L19.259 10.4374L19.4677 10.1404L19.2499 9.84996L18.8499 10.1499ZM9.9999 4.8999L10.0059 4.3999H9.9999V4.8999ZM1.1499 10.1499L0.740836 9.86239L0.531884 10.1597L0.750134 10.4502L1.1499 10.1499ZM8.05552 15.6766C8.69362 15.8266 9.34628 15.901 10.0007 15.8999L9.99909 14.8999C9.42152 14.9008 8.84619 14.8352 8.28429 14.7032L8.05552 15.6766ZM9.9999 15.8999C12.7488 15.8999 15.073 14.5046 16.6809 13.1583C17.4897 12.481 18.131 11.8048 18.5706 11.2977C18.7906 11.0438 18.9608 10.8314 19.0768 10.6813C19.1349 10.6062 19.1794 10.5466 19.21 10.5051C19.2252 10.4844 19.237 10.4682 19.2452 10.4568C19.2493 10.4511 19.2525 10.4466 19.2548 10.4433C19.2559 10.4417 19.2568 10.4404 19.2575 10.4394C19.2579 10.4389 19.2582 10.4385 19.2584 10.4382C19.2585 10.438 19.2587 10.4378 19.2587 10.4377C19.2589 10.4376 19.259 10.4374 18.8499 10.1499C18.4408 9.86239 18.4409 9.86228 18.441 9.86218C18.441 9.86218 18.441 9.86211 18.441 9.8621C18.441 9.86208 18.441 9.86215 18.4409 9.86229C18.4407 9.86257 18.4403 9.86316 18.4396 9.86407C18.4384 9.86588 18.4362 9.86892 18.4331 9.87316C18.4271 9.88163 18.4175 9.89488 18.4044 9.91258C18.3784 9.948 18.3386 10.0012 18.2857 10.0697C18.1798 10.2067 18.0214 10.4045 17.8149 10.6427C17.4013 11.12 16.7976 11.7563 16.0389 12.3915C14.5118 13.6702 12.411 14.8999 9.9999 14.8999V15.8999ZM19.2499 9.84996C18.4056 8.72378 17.4167 7.71427 16.3082 6.84623L15.6916 7.63357C16.7311 8.44753 17.6582 9.39403 18.4499 10.4498L19.2499 9.84996ZM14.2877 5.51005C12.9713 4.79848 11.5018 4.41791 10.0059 4.39994L9.9939 5.39987C11.328 5.41589 12.6385 5.75532 13.8121 6.38975L14.2877 5.51005ZM9.9999 4.3999C7.25097 4.3999 4.9268 5.79522 3.31891 7.14154C2.5101 7.81877 1.86876 8.49499 1.42925 9.00212C1.20921 9.25601 1.03901 9.46839 0.922957 9.61851C0.864913 9.69359 0.820361 9.75317 0.78984 9.79466C0.774577 9.81541 0.762818 9.83164 0.75463 9.84303C0.750535 9.84873 0.747333 9.85322 0.745032 9.85646C0.743881 9.85808 0.742955 9.85938 0.742256 9.86037C0.741906 9.86087 0.741612 9.86128 0.741376 9.86162C0.741258 9.86179 0.741123 9.86198 0.741064 9.86206C0.740943 9.86224 0.740836 9.86239 1.1499 10.1499C1.55897 10.4374 1.55889 10.4375 1.55883 10.4376C1.55882 10.4376 1.55877 10.4377 1.55877 10.4377C1.55875 10.4377 1.5588 10.4377 1.5589 10.4375C1.5591 10.4372 1.55952 10.4366 1.56016 10.4357C1.56145 10.4339 1.56362 10.4309 1.56666 10.4266C1.57275 10.4182 1.58234 10.4049 1.59537 10.3872C1.62142 10.3518 1.66118 10.2986 1.71411 10.2301C1.82002 10.0931 1.97841 9.89535 2.18493 9.65705C2.59854 9.17981 3.2022 8.54353 3.9609 7.90826C5.488 6.62958 7.58883 5.3999 9.9999 5.3999V4.3999ZM0.750134 10.4502C2.03795 12.1645 3.6614 13.598 5.52131 14.6637L6.01849 13.7961C4.2764 12.7978 2.75585 11.4553 1.54967 9.84959L0.750134 10.4502ZM9.9999 14.0999C12.264 14.0999 14.0999 12.264 14.0999 9.9999H13.0999C13.0999 11.7118 11.7118 13.0999 9.9999 13.0999V14.0999ZM12.9035 7.09635C11.3002 5.49309 8.69961 5.49309 7.09635 7.09635L7.80346 7.80346C9.01619 6.59072 10.9836 6.59072 12.1963 7.80346L12.9035 7.09635ZM7.09635 7.09635C5.49309 8.69961 5.49309 11.3002 7.09635 12.9035L7.80346 12.1963C6.59072 10.9836 6.59072 9.01619 7.80346 7.80346L7.09635 7.09635Z" fill="#5B758C"/>
<path d="M19 1L1 19" stroke="#5B758C"/>
</g>
</g>
<defs>
<clipPath id="clip0_2151_45105">
<rect width="19" height="19" fill="white" transform="translate(0.5 0.5)"/>
</clipPath>
</defs>
</svg>
